# This file uses centimeters as units for non-parametric coordinates.

mtllib Rock to sculpt.mtl
g default
v -0.266805 -0.334413 8.274948
v 4.857252 -0.540710 8.308350
v -0.545997 2.230542 8.338960
v 4.527831 2.276582 7.952556
v -3.344680 2.242381 -3.378859
v 3.233491 2.429119 -3.418266
v -3.349768 -0.346549 -3.377704
v 3.221483 -0.276996 -3.411627
v -2.830531 1.317756 -3.495572
v -0.545906 1.317119 8.339312
v 4.956500 1.338385 7.941487
v 3.231998 1.380244 -2.843393
v -2.830531 0.415923 -3.495572
v -0.265923 0.425606 8.275187
v 5.489970 0.208479 8.291503
v 3.227014 0.430733 -2.840639
v -2.469145 2.254271 -3.381934
v -2.491826 1.327982 -3.975904
v -2.491827 0.422479 -3.975905
v -2.474339 -0.343833 -3.380756
v 0.016087 -0.340210 8.888138
v 0.046267 0.419902 8.887461
v 0.060634 1.311652 8.337142
v 0.060567 2.227193 8.336907
v 0.125466 2.749692 -3.446649
v 0.126326 1.448320 -4.007970
v 0.122596 0.499756 -4.005907
v 0.128815 -0.307564 -3.407046
v 1.898317 -0.329846 8.879283
v 2.034287 0.432947 8.875438
v 2.095114 1.327470 8.056671
v 2.095114 2.247254 8.056671
v 1.826556 2.808772 -3.452705
v 1.838502 1.398485 -2.843384
v 1.833447 0.438493 -2.840590
v 1.827871 -0.277311 -3.411553
v 3.192877 -0.319050 8.322960
v 3.381698 0.446640 8.317614
v 3.547329 1.350909 7.688160
v 3.547330 2.271520 7.688160
v -2.716540 2.518903 -0.613074
v -2.202297 1.614881 -0.728026
v -2.202297 0.688273 -0.728026
v -2.721021 -0.124255 -0.611577
v -1.921666 -0.109957 -0.613622
v 0.458001 -0.228777 -0.647128
v 2.021011 -0.266837 -0.655258
v 4.265832 -0.179531 -0.668555
v 4.014688 0.645299 -0.665336
v 3.049202 1.497999 -0.654991
v 3.307482 2.453179 -0.662155
v 2.199062 3.140053 -0.458570
v 0.609683 3.467154 -0.405227
v -1.941448 2.853928 -0.571408
v 4.094555 0.408872 4.706192
v 4.179812 1.308513 4.703780
v 4.179813 2.238184 4.703780
v 2.863887 1.924928 4.664786
v 1.273994 2.054498 4.681296
v -0.720805 2.605741 4.745601
v -1.364367 2.630341 4.746856
v -0.775729 1.755688 4.603143
v -0.775729 0.855212 4.603143
v -1.364150 0.060288 4.747722
v -0.720601 0.036796 4.746422
v 1.315553 -0.210484 4.727823
v 2.791624 -0.345638 4.714190
v 3.917769 -0.356158 4.711194
v -2.149102 2.737352 1.554589
v -1.570485 1.853599 1.413211
v -1.570485 0.926674 1.413211
v -2.151689 0.099177 1.555999
v -1.409326 0.073270 1.551335
v 0.744013 -0.212932 1.524075
v 2.169368 -0.327998 1.518770
v 4.319925 -0.242934 1.505536
v 4.066422 0.557928 1.510059
v 3.098877 1.391281 1.521542
v 3.356385 2.342781 1.514804
v 2.199177 2.342228 1.710005
v 0.747447 2.757245 1.759912
v -1.431581 3.030010 1.593866
v -1.089862 2.532293 5.957042
v -1.089292 1.653479 5.959335
v -0.806383 0.762135 5.895119
v -0.806793 -0.022550 5.893473
v -0.477856 -0.056279 5.955775
v 1.563966 -0.259558 5.936409
v 3.007850 -0.342094 5.924558
v 4.792021 -0.567370 5.909431
v 5.425027 0.181834 5.892578
v 4.814074 1.306793 5.902398
v 4.385405 2.252341 5.913468
v 3.280090 2.249347 5.916832
v 1.725832 2.317939 5.931544
v -0.468023 2.499948 5.954886
vt 0.375000 0.000000
vt 0.625000 0.000000
vt 0.375000 0.250000
vt 0.625000 0.250000
vt 0.375000 0.500000
vt 0.625000 0.500000
vt 0.375000 0.750000
vt 0.625000 0.750000
vt 0.375000 1.000000
vt 0.625000 1.000000
vt 0.875000 0.000000
vt 0.875000 0.250000
vt 0.125000 0.000000
vt 0.125000 0.250000
vt 0.125000 0.160405
vt 0.375000 0.589595
vt 0.375000 0.160405
vt 0.625000 0.160405
vt 0.625000 0.589595
vt 0.875000 0.160405
vt 0.125000 0.073580
vt 0.375000 0.676419
vt 0.375000 0.073580
vt 0.625000 0.073580
vt 0.625000 0.676419
vt 0.875000 0.073580
vt 0.408511 0.500000
vt 0.408511 0.589595
vt 0.408511 0.676419
vt 0.408511 0.750000
vt 0.408511 0.000000
vt 0.408511 1.000000
vt 0.408511 0.073580
vt 0.408511 0.160405
vt 0.408511 0.250000
vt 0.505383 0.500000
vt 0.505383 0.589595
vt 0.505383 0.676419
vt 0.505383 0.750000
vt 0.505383 0.000000
vt 0.505383 1.000000
vt 0.505383 0.073580
vt 0.505383 0.160405
vt 0.505383 0.250000
vt 0.570826 0.500000
vt 0.570826 0.589595
vt 0.570826 0.676419
vt 0.570826 0.750000
vt 0.570826 0.000000
vt 0.570826 1.000000
vt 0.570826 0.073580
vt 0.570826 0.160405
vt 0.570826 0.250000
vt 0.183657 0.250000
vt 0.375000 0.441343
vt 0.183657 0.160405
vt 0.183657 0.073580
vt 0.183657 0.000000
vt 0.375000 0.808657
vt 0.408511 0.808657
vt 0.505383 0.808657
vt 0.570826 0.808657
vt 0.625000 0.808657
vt 0.816343 0.000000
vt 0.816343 0.073580
vt 0.816343 0.160405
vt 0.625000 0.441343
vt 0.816343 0.250000
vt 0.570826 0.441343
vt 0.505383 0.441343
vt 0.408511 0.441343
vt 0.701905 0.073580
vt 0.701905 0.160405
vt 0.625000 0.326906
vt 0.701905 0.250000
vt 0.570826 0.326906
vt 0.505383 0.326906
vt 0.408511 0.326906
vt 0.298094 0.250000
vt 0.375000 0.326906
vt 0.298094 0.160405
vt 0.298094 0.073580
vt 0.298094 0.000000
vt 0.375000 0.923094
vt 0.408511 0.923094
vt 0.505383 0.923094
vt 0.570826 0.923094
vt 0.625000 0.923094
vt 0.701905 0.000000
vt 0.229878 0.250000
vt 0.375000 0.395122
vt 0.229878 0.160405
vt 0.229878 0.073580
vt 0.229878 0.000000
vt 0.375000 0.854878
vt 0.408511 0.854878
vt 0.505383 0.854878
vt 0.570826 0.854878
vt 0.625000 0.854878
vt 0.770122 0.000000
vt 0.770122 0.073580
vt 0.770122 0.160405
vt 0.625000 0.395122
vt 0.770122 0.250000
vt 0.570826 0.395122
vt 0.505383 0.395122
vt 0.408511 0.395122
vt 0.323944 0.250000
vt 0.375000 0.301056
vt 0.323944 0.160405
vt 0.323944 0.073580
vt 0.323944 0.000000
vt 0.375000 0.948944
vt 0.408511 0.948944
vt 0.505383 0.948944
vt 0.570826 0.948944
vt 0.625000 0.948944
vt 0.676056 0.000000
vt 0.676056 0.073580
vt 0.676056 0.160405
vt 0.625000 0.301056
vt 0.676056 0.250000
vt 0.570826 0.301056
vt 0.505383 0.301056
vt 0.408511 0.301056
vn -0.252167 0.067020 0.965360
vn 0.021937 0.304899 0.952132
vn 0.106590 0.000175 0.994303
vn 0.003484 0.000322 0.999994
vn 0.029246 0.993143 0.113184
vn 0.040251 0.996248 0.076620
vn 0.081718 0.996479 0.018778
vn 0.035843 0.994649 0.096899
vn -0.362161 0.248754 -0.898310
vn -0.108305 0.436269 -0.893274
vn -0.137588 0.240667 -0.960806
vn -0.594225 0.144038 -0.791296
vn -0.008113 -0.996663 -0.081220
vn -0.057765 -0.996846 -0.054422
vn -0.046712 -0.997406 -0.054758
vn 0.074570 -0.989296 -0.125430
vn 0.899729 0.432754 -0.056677
vn 0.904890 0.362199 -0.223576
vn 0.924252 0.345276 -0.162919
vn 0.907688 0.413923 -0.069067
vn -0.981789 -0.160972 0.100891
vn -0.962098 -0.193743 0.191913
vn -0.974912 -0.000032 0.222591
vn -0.983848 -0.140672 0.110698
vn -0.984836 -0.095590 0.144775
vn -0.970114 -0.135484 0.201300
vn -0.750457 0.084243 0.655528
vn -0.138874 0.343605 0.928789
vn 0.996446 -0.075206 -0.037948
vn 0.953736 -0.096827 -0.284627
vn -0.111499 -0.321495 -0.940324
vn -0.599743 -0.167800 -0.782401
vn -0.968616 0.106509 0.224586
vn -0.975193 0.000545 0.221356
vn -0.899327 0.018503 0.436884
vn -0.261963 0.007473 0.965049
vn 0.763706 -0.645422 -0.013550
vn 0.772178 -0.581487 -0.256150
vn -0.057214 -0.561256 -0.825662
vn -0.351038 -0.298688 -0.887444
vn 0.142894 0.220252 -0.964920
vn 0.165307 0.166100 -0.972154
vn 0.199706 -0.198506 -0.959538
vn 0.117554 -0.430182 -0.895056
vn -0.057003 -0.997871 -0.031690
vn -0.041521 -0.998480 -0.036247
vn 0.162158 -0.030044 0.986307
vn 0.158849 0.368206 0.916074
vn 0.168804 0.345628 0.923064
vn 0.184201 0.000075 0.982889
vn 0.032921 0.998405 0.045874
vn 0.063857 0.997318 -0.035775
vn 0.204390 -0.160791 -0.965594
vn 0.247553 -0.125677 -0.960689
vn 0.274961 0.140681 -0.951107
vn 0.183344 0.308671 -0.933331
vn -0.078640 -0.996890 -0.005106
vn -0.076932 -0.997023 0.005157
vn 0.165075 -0.026243 0.985932
vn 0.132073 0.323609 0.936928
vn 0.072656 0.289816 0.954321
vn 0.036010 -0.025863 0.999017
vn 0.007949 0.999968 0.000301
vn -0.008443 0.997355 -0.072196
vn -0.050528 -0.433481 -0.899745
vn -0.030032 -0.258723 -0.965485
vn 0.000829 0.325276 -0.945619
vn 0.001637 0.625730 -0.780038
vn -0.119296 -0.992850 0.004233
vn -0.128364 -0.991582 0.016970
vn 0.011798 0.008250 0.999896
vn -0.007247 0.214755 0.976641
vn -0.087289 0.288053 0.953628
vn -0.211585 -0.054606 0.975833
vn -0.002370 0.999926 -0.011925
vn -0.052146 0.997464 -0.048439
vn -0.942987 -0.232475 0.238181
vn -0.920482 -0.288235 0.263882
vn -0.816546 -0.515017 0.260788
vn -0.832632 -0.498756 0.240760
vn -0.922022 0.343438 0.178676
vn -0.931130 0.301170 0.205654
vn -0.817848 0.559183 0.135791
vn -0.813845 0.562293 0.146569
vn 0.010369 -0.996744 0.079959
vn -0.007958 -0.997834 0.065298
vn -0.031318 -0.997268 0.066895
vn 0.004342 -0.996352 0.085229
vn -0.037497 -0.998514 0.039542
vn -0.010974 -0.998986 0.043674
vn 0.006972 -0.999975 -0.000784
vn 0.011025 -0.999822 0.015286
vn 0.032396 -0.999419 -0.010620
vn 0.024125 -0.999608 0.014191
vn 0.852806 0.509761 -0.113427
vn 0.937701 0.289550 -0.192038
vn 0.895156 0.274924 -0.350874
vn 0.893487 0.356363 -0.273288
vn 0.973894 0.224668 -0.032481
vn 0.983010 0.171310 -0.065909
vn 0.982979 -0.183714 -0.001311
vn 0.992296 -0.121273 0.025314
vn 0.209716 0.967250 -0.142991
vn 0.227802 0.973212 0.031046
vn 0.360577 0.932467 0.022130
vn 0.383956 0.919280 -0.086621
vn -0.114723 0.976421 -0.182870
vn -0.027651 0.999348 -0.023223
vn -0.203276 0.965930 -0.160182
vn -0.200498 0.976200 -0.082668
vn -0.260850 0.962592 -0.073312
vn -0.201919 0.973087 -0.111043
vn 0.945438 0.177473 -0.273222
vn 0.904455 0.425488 -0.030364
vn 0.955629 0.262092 -0.134466
vn 0.931887 0.189476 -0.309331
vn 0.952985 -0.037615 -0.300674
vn 0.965353 -0.189436 -0.179467
vn 0.136247 0.974346 0.179128
vn 0.020556 0.999202 0.034239
vn -0.121752 0.991686 0.041670
vn 0.062208 0.986980 0.148323
vn 0.143443 0.972772 0.182040
vn 0.166729 0.984626 0.052092
vn -0.034038 0.991389 0.126453
vn 0.121225 0.988228 0.093324
vn -0.146865 0.982196 0.117143
vn -0.297070 0.952401 0.068420
vn -0.908934 -0.335449 0.247616
vn -0.947210 -0.288918 0.138994
vn -0.846610 -0.515037 0.134122
vn -0.804847 -0.551833 0.218407
vn -0.926116 0.292967 0.237655
vn -0.947161 0.268943 0.174801
vn -0.790267 0.583779 0.186225
vn -0.816071 0.538737 0.209260
vn -0.021276 -0.998702 0.046271
vn -0.086495 -0.995529 0.037941
vn -0.105674 -0.994398 0.002532
vn -0.038271 -0.999211 -0.010576
vn -0.104855 -0.994474 0.005164
vn -0.095424 -0.995152 0.023825
vn -0.036529 -0.999267 -0.011428
vn -0.017269 -0.999792 -0.010858
vn -0.008486 -0.999524 -0.029646
vn 0.030787 -0.999193 -0.025808
vn 0.953712 -0.133543 -0.269444
vn 0.988303 0.149279 0.031187
s 1
g pCube1
usemtl initialShadingGroup
f 10/17/1 23/34/2 24/35/3 3/3/4
s 2
f 3/3/5 24/35/6 96/125/7 83/109/8
s 3
f 5/5/9 17/27/10 18/28/11 9/16/12
s 4
f 86/113/13 87/114/14 21/32/15 1/9/16
s 5
f 11/18/17 92/120/18 93/122/19 4/4/20
s 6
f 84/110/21 10/17/22 3/3/23 83/108/24
f 85/111/25 14/23/26 10/17/22 84/110/21
s 1
f 14/23/27 22/33/28 23/34/2 10/17/1
s 5
f 15/24/29 91/119/30 92/120/18 11/18/17
s 3
f 9/16/12 18/28/11 19/29/31 13/22/32
s 6
f 86/112/33 1/1/34 14/23/26 85/111/25
s 1
f 1/1/35 21/31/36 22/33/28 14/23/27
s 5
f 2/2/37 90/118/38 91/119/30 15/24/29
s 3
f 13/22/32 19/29/31 20/30/39 7/7/40
f 17/27/10 25/36/41 26/37/42 18/28/11
f 19/29/31 18/28/11 26/37/42 27/38/43
f 20/30/39 19/29/31 27/38/43 28/39/44
s 4
f 21/32/15 87/114/14 88/115/45 29/41/46
s 1
f 22/33/28 21/31/36 29/40/47 30/42/48
f 23/34/2 22/33/28 30/42/48 31/43/49
f 24/35/3 23/34/2 31/43/49 32/44/50
s 2
f 96/125/7 24/35/6 32/44/51 95/124/52
s 3
f 25/36/41 33/45/53 34/46/54 26/37/42
f 27/38/43 26/37/42 34/46/54 35/47/55
f 28/39/44 27/38/43 35/47/55 36/48/56
s 4
f 29/41/46 88/115/45 89/116/57 37/50/58
s 1
f 30/42/48 29/40/47 37/49/59 38/51/60
f 31/43/49 30/42/48 38/51/60 39/52/61
f 32/44/50 31/43/49 39/52/61 40/53/62
s 2
f 95/124/52 32/44/51 40/53/63 94/123/64
s 3
f 33/45/53 6/6/65 12/19/66 34/46/54
f 35/47/55 34/46/54 12/19/66 16/25/67
f 36/48/56 35/47/55 16/25/67 8/8/68
s 4
f 37/50/58 89/116/57 90/117/69 2/10/70
s 1
f 38/51/60 37/49/59 2/2/71 15/24/72
f 39/52/61 38/51/60 15/24/72 11/18/73
f 40/53/62 39/52/61 11/18/73 4/4/74
s 2
f 94/123/64 40/53/63 4/4/75 93/121/76
s 6
f 9/15/77 42/56/78 41/54/79 5/14/80
f 13/21/81 43/57/82 42/56/78 9/15/77
f 7/13/83 44/58/84 43/57/82 13/21/81
s 4
f 7/7/85 20/30/86 45/60/87 44/59/88
f 46/61/89 45/60/87 20/30/86 28/39/90
f 47/62/91 46/61/89 28/39/90 36/48/92
f 48/63/93 47/62/91 36/48/92 8/8/94
s 5
f 49/65/95 48/64/96 8/11/97 16/26/98
f 50/66/99 49/65/95 16/26/98 12/20/100
f 51/68/101 50/66/99 12/20/100 6/12/102
s 2
f 33/45/103 52/69/104 51/67/105 6/6/106
f 25/36/107 53/70/108 52/69/104 33/45/103
f 17/27/109 54/71/110 53/70/108 25/36/107
f 41/55/111 54/71/110 17/27/109 5/5/112
s 5
f 55/72/113 77/101/114 78/102/115 56/73/116
f 57/75/117 56/73/116 78/102/115 79/104/118
s 2
f 80/105/119 58/76/120 57/74/121 79/103/122
f 81/106/123 59/77/124 58/76/120 80/105/119
f 82/107/125 60/78/126 59/77/124 81/106/123
f 61/80/127 60/78/126 82/107/125 69/91/128
s 6
f 70/92/129 62/81/130 61/79/131 69/90/132
f 71/93/133 63/82/134 62/81/130 70/92/129
f 72/94/135 64/83/136 63/82/134 71/93/133
s 4
f 72/95/137 73/96/138 65/85/139 64/84/140
f 66/86/141 65/85/139 73/96/138 74/97/142
f 67/87/143 66/86/141 74/97/142 75/98/144
f 68/88/145 67/87/143 75/98/144 76/99/146
s 5
f 55/72/113 68/89/147 76/100/148 77/101/114
s 6
f 42/56/78 70/92/129 69/90/132 41/54/79
f 43/57/82 71/93/133 70/92/129 42/56/78
f 44/58/84 72/94/135 71/93/133 43/57/82
s 4
f 44/59/88 45/60/87 73/96/138 72/95/137
f 74/97/142 73/96/138 45/60/87 46/61/89
f 75/98/144 74/97/142 46/61/89 47/62/91
f 76/99/146 75/98/144 47/62/91 48/63/93
s 5
f 77/101/114 76/100/148 48/64/96 49/65/95
f 78/102/115 77/101/114 49/65/95 50/66/99
f 79/104/118 78/102/115 50/66/99 51/68/101
s 2
f 52/69/104 80/105/119 79/103/122 51/67/105
f 53/70/108 81/106/123 80/105/119 52/69/104
f 54/71/110 82/107/125 81/106/123 53/70/108
f 69/91/128 82/107/125 54/71/110 41/55/111
s 6
f 62/81/130 84/110/21 83/108/24 61/79/131
f 63/82/134 85/111/25 84/110/21 62/81/130
f 64/83/136 86/112/33 85/111/25 63/82/134
s 4
f 64/84/140 65/85/139 87/114/14 86/113/13
f 88/115/45 87/114/14 65/85/139 66/86/141
f 89/116/57 88/115/45 66/86/141 67/87/143
f 90/117/69 89/116/57 67/87/143 68/88/145
s 5
f 91/119/30 90/118/38 68/89/147 55/72/113
f 92/120/18 91/119/30 55/72/113 56/73/116
f 93/122/19 92/120/18 56/73/116 57/75/117
s 2
f 58/76/120 94/123/64 93/121/76 57/74/121
f 59/77/124 95/124/52 94/123/64 58/76/120
f 60/78/126 96/125/7 95/124/52 59/77/124
f 83/109/8 96/125/7 60/78/126 61/80/127
